<svg width="121" height="36" fill="none" xmlns="http://www.w3.org/2000/svg"><path d="M3.565 31.938c0-.866-.187-1.451-.586-1.859-.289-.297-.653-.399-1.392-.399H.102c-.076 0-.102.034-.102.102v.323c0 .068.026.118.102.118h.441v3.523h-.44c-.077 0-.103.042-.103.11v.323c0 .06.026.101.102.101h1.4c1.46 0 2.063-.704 2.063-2.342zm-.688-.009c0 1.333-.356 1.783-1.256 1.783h-.424v-3.455h.373c.34 0 .704.01.942.238.263.255.365.696.365 1.434zm3.565 2.241v-.306c0-.101-.026-.118-.128-.118h-.61v-3.523h.61c.102 0 .128-.034.128-.127V29.8c0-.102-.026-.119-.128-.119H4.43c-.102 0-.127.026-.127.12v.296c0 .093.017.127.127.127h.62v3.523h-.62c-.102 0-.127.025-.127.118v.306c0 .093.025.11.127.11h1.884c.102 0 .128-.017.128-.11zm4.32-1.842v-.322c0-.068-.026-.11-.102-.11H9.073c-.102 0-.128.033-.128.127v.297c0 .102.026.119.128.119h.543v1.298c-.187.06-.348.094-.543.094-.84 0-1.197-.51-1.197-1.927 0-1.247.356-1.774 1.078-1.774.212 0 .45.06.653.144v.552c0 .068.051.102.11.102h.323c.06 0 .119-.034.119-.102v-.764c0-.085-.034-.11-.085-.144a2.21 2.21 0 00-1.12-.322c-1.155 0-1.774.873-1.774 2.435 0 1.511.62 2.334 1.782 2.334.45 0 .934-.101 1.222-.263.06-.034.077-.05.077-.118v-1.545h.399c.076 0 .101-.043.101-.11zm2.52 1.842v-.306c0-.101-.025-.118-.127-.118h-.611v-3.523h.61c.103 0 .128-.034.128-.127V29.8c0-.102-.025-.119-.127-.119H11.27c-.102 0-.128.026-.128.12v.296c0 .093.018.127.128.127h.62v3.523h-.62c-.102 0-.128.025-.128.118v.306c0 .093.026.11.128.11h1.884c.102 0 .127-.017.127-.11zm3.76-3.242v-1.12c0-.085-.034-.128-.128-.128h-2.936c-.102 0-.136.017-.136.12v1.128c0 .076.051.093.119.093h.33c.06 0 .103-.025.103-.093v-.705h.721v3.523h-.492c-.068 0-.11.042-.11.11v.323c0 .067.042.101.11.101h1.63c.067 0 .11-.034.11-.101v-.323c0-.068-.043-.11-.11-.11h-.485v-3.523h.713v.705c0 .076.051.093.12.093h.322c.068 0 .119-.017.119-.093zm4.294 3.25v-.322c0-.068-.043-.11-.11-.11h-.357l-1.34-3.973c-.026-.076-.035-.093-.128-.093h-.442c-.084 0-.101.017-.127.093l-1.34 3.973h-.357c-.077 0-.102.042-.102.11v.323c0 .059.025.101.102.101h1.476c.069 0 .11-.034.11-.101v-.323c0-.068-.041-.11-.11-.11h-.432l.254-.807h1.469l.246.806h-.408c-.076 0-.102.043-.102.11v.324c0 .067.034.101.102.101h1.486c.067 0 .11-.042.11-.101zm-1.613-1.799h-1.12l.416-1.375c.06-.186.102-.382.144-.551.034.144.076.305.153.56l.407 1.366zm5.296.934c.026-.068.026-.102-.06-.128l-.347-.118a.117.117 0 00-.144.067l-.221.578h-1.282v-3.489h.442c.076 0 .11-.05.11-.118v-.323c0-.068-.042-.102-.11-.102H21.87c-.077 0-.102.034-.102.102v.323c0 .067.025.118.102.118h.44v3.523h-.44c-.077 0-.102.042-.102.11v.323c0 .059.025.101.102.101h2.681c.068 0 .11-.025.136-.085l.331-.882zm.433-.985c0 .094.051.102.102.102h1.918c.093 0 .102-.05.102-.102v-.433c0-.05-.009-.101-.102-.101h-1.918c-.094 0-.102.05-.102.101v.433zm6.942 1.85v-.322c0-.068-.042-.11-.11-.11h-.357l-1.34-3.973c-.026-.076-.035-.093-.128-.093h-.441c-.085 0-.102.017-.128.093l-1.34 3.973h-.357c-.076 0-.102.042-.102.11v.323c0 .059.026.101.102.101h1.477c.068 0 .11-.034.11-.101v-.323c0-.068-.042-.11-.11-.11h-.433l.255-.807h1.468l.246.806H30.8c-.077 0-.102.043-.102.11v.324c0 .067.034.101.102.101h1.485c.068 0 .11-.042.11-.101zm-1.612-1.799h-1.12l.415-1.375c.06-.186.102-.382.144-.551.035.144.077.305.153.56l.408 1.366zm5.126-1.468v-1.104c0-.093-.026-.127-.128-.127h-2.85c-.076 0-.102.034-.102.102v.323c0 .067.026.118.102.118h.441v3.523h-.441c-.076 0-.102.042-.102.11v.323c0 .059.026.101.102.101h1.613c.076 0 .11-.042.11-.101v-.323c0-.068-.034-.11-.11-.11h-.518v-3.489h1.332v.654c0 .068.051.11.11.11h.331c.068 0 .11-.042.11-.11zm3.412 3.259v-.968c0-.067-.034-.11-.11-.11h-.331c-.069 0-.103.043-.103.11v.51h-1.298v-1.545h1.41c.092 0 .118-.017.118-.11v-.314c0-.094-.017-.128-.119-.128h-1.409v-1.357h1.24v.44c0 .077.05.111.118.111h.33c.069 0 .103-.042.103-.11v-.891c0-.094-.017-.128-.119-.128h-2.767c-.076 0-.102.034-.102.102v.323c0 .068.026.118.102.118h.442v3.523h-.442c-.076 0-.102.042-.102.11v.323c0 .06.026.101.102.101h2.81c.093 0 .127-.016.127-.11zm4.854.009v-.323c0-.068-.034-.11-.11-.11h-.441v-3.523h.44c.077 0 .111-.05.111-.118v-.323c0-.068-.034-.102-.11-.102h-1.528c-.068 0-.119.034-.119.102v.323c0 .068.043.118.12.118h.44v1.392h-1.816v-1.392h.441c.077 0 .11-.05.11-.118v-.323c0-.068-.042-.102-.11-.102h-1.535c-.077 0-.103.034-.103.102v.323c0 .068.026.118.102.118h.442v3.523h-.442c-.076 0-.102.042-.102.11v.323c0 .06.026.101.102.101h1.536c.069 0 .11-.025.11-.101v-.323c0-.068-.042-.11-.11-.11h-.44v-1.579h1.816v1.579h-.442c-.068 0-.119.042-.119.11v.323c0 .067.051.101.12.101h1.527c.068 0 .11-.034.11-.101zm3.675-3.251v-1.12c0-.085-.034-.128-.127-.128h-2.937c-.102 0-.136.017-.136.12v1.128c0 .076.051.093.12.093h.33c.06 0 .102-.025.102-.093v-.705h.722v3.523h-.493c-.068 0-.11.042-.11.11v.323c0 .067.042.101.11.101h1.63c.068 0 .11-.034.11-.101v-.323c0-.068-.042-.11-.11-.11h-.484v-3.523h.713v.705c0 .076.05.093.119.093h.322c.068 0 .119-.017.119-.093zm3.454 2.953v-.738c0-.06-.034-.102-.102-.102h-.33c-.069 0-.12.034-.12.102v.535a1.258 1.258 0 01-.62.153c-.661 0-1.018-.603-1.018-1.952 0-1.29.289-1.749.968-1.749.212 0 .399.043.636.153v.526c0 .068.051.11.12.11h.33c.076 0 .102-.042.102-.11v-.738c0-.068-.008-.102-.068-.144-.271-.196-.738-.331-1.129-.331-1.094 0-1.655.806-1.655 2.342 0 1.596.578 2.427 1.706 2.427.382 0 .815-.127 1.104-.33.06-.043.076-.077.076-.153zm3.683-2.953v-1.12c0-.085-.034-.128-.127-.128h-2.936c-.103 0-.137.017-.137.12v1.128c0 .076.052.093.12.093h.33c.06 0 .102-.025.102-.093v-.705h.722v3.523h-.493c-.067 0-.11.042-.11.11v.323c0 .067.043.101.11.101h1.63c.068 0 .11-.034.11-.101v-.323c0-.068-.042-.11-.11-.11h-.484v-3.523h.713v.705c0 .076.05.093.119.093h.322c.068 0 .12-.017.12-.093zm3.93 2.07c0-.364-.136-.695-.39-.907-.128-.11-.238-.162-.459-.22.441-.213.679-.603.679-1.087 0-.323-.128-.637-.34-.823-.246-.213-.534-.28-1.145-.28h-1.698c-.076 0-.102.034-.102.101v.323c0 .068.026.119.102.119h.441v3.522h-.44c-.077 0-.103.042-.103.11v.323c0 .06.026.102.102.102h1.57c.526 0 1.07.008 1.46-.416a1.25 1.25 0 00.322-.866zm-.875-2.113c0 .578-.28.781-.942.781h-.441v-1.443h.594c.586 0 .79.196.79.662zm.179 2.08c0 .51-.306.772-.934.772h-.628v-1.536h.594c.645 0 .968.238.968.764zm4.863-.985c0-1.57-.552-2.384-1.638-2.384-1.13 0-1.706.831-1.706 2.401 0 1.553.56 2.368 1.638 2.368 1.12 0 1.706-.84 1.706-2.385zm-.713.017c0 1.358-.331 1.834-.968 1.834-.9 0-.967-1.197-.967-1.867 0-1.341.34-1.834.992-1.834.858 0 .943 1.223.943 1.867zm7.477 1.859c0-.076-.051-.11-.11-.11h-.433v-3.523h.432c.06 0 .11-.034.11-.118v-.323c0-.076-.041-.102-.11-.102h-3.785c-.068 0-.102.034-.102.102v.323c0 .059.009.118.102.118h.442v3.523h-.442c-.076 0-.102.042-.102.11v.323c0 .067.034.101.102.101h1.528c.06 0 .11-.016.11-.101v-.323c0-.06-.034-.11-.11-.11h-.433v-3.514h1.604v3.514h-.424c-.085 0-.119.05-.119.11v.323c0 .06.034.101.12.101h1.51c.068 0 .11-.042.11-.101v-.323zm4.133-1.876c0-1.57-.552-2.384-1.638-2.384-1.129 0-1.706.831-1.706 2.401 0 1.553.56 2.368 1.638 2.368 1.12 0 1.706-.84 1.706-2.385zm-.713.017c0 1.358-.33 1.834-.967 1.834-.9 0-.968-1.197-.968-1.867 0-1.341.34-1.834.993-1.834.857 0 .942 1.223.942 1.867zm3.921-1.773v3.522h-.458c-.085 0-.085.085-.085.11v.323c0 .067.034.102.102.102h1.536c.068 0 .102-.035.102-.102v-.323c0-.06-.009-.11-.11-.11h-.434v-3.523h.425c.102 0 .119-.059.119-.118v-.323c0-.076-.043-.102-.11-.102h-3.276c-.068 0-.102.034-.102.102v.323c0 .076.017.119.11.119h.433v.44c0 .493-.009.977-.043 1.469-.033.475-.102 1.189-.432 1.468-.162.136-.357.162-.501.179l-.06.008c-.06.009-.101.06-.076.136l.119.373c.025.068.076.077.136.077.186 0 .568-.06.857-.34.475-.466.526-1.307.56-1.85.034-.543.051-1.307.051-1.765v-.195h1.137zm6.102 3.955v-.323c0-.068-.034-.11-.11-.11h-.441v-3.523h.44c.077 0 .111-.05.111-.118v-.323c0-.068-.034-.102-.11-.102h-1.528c-.068 0-.119.034-.119.102v.323c0 .068.043.119.12.119h.44v1.391h-1.816v-1.391h.442c.076 0 .11-.051.11-.119v-.323c0-.068-.042-.102-.11-.102h-1.536c-.077 0-.103.034-.103.102v.323c0 .068.026.119.103.119h.44v3.522h-.44c-.077 0-.103.042-.103.11v.323c0 .06.026.102.103.102h1.535c.069 0 .11-.026.11-.102v-.323c0-.068-.041-.11-.11-.11h-.44v-1.579h1.816v1.579h-.442c-.068 0-.119.042-.119.11v.323c0 .067.051.102.12.102h1.527c.068 0 .11-.035.11-.102zm4.133-2.199c0-1.57-.552-2.384-1.638-2.384-1.129 0-1.706.831-1.706 2.401 0 1.553.56 2.368 1.638 2.368 1.12 0 1.707-.84 1.707-2.385zm-.713.017c0 1.358-.33 1.834-.967 1.834-.9 0-.968-1.197-.968-1.867 0-1.341.34-1.834.993-1.834.857 0 .942 1.223.942 1.867zm4.583-1.086v-1.103c0-.094-.025-.128-.127-.128h-2.851c-.077 0-.102.034-.102.102v.323c0 .068.025.118.102.118h.44v3.523h-.44c-.077 0-.102.042-.102.11v.323c0 .06.025.101.102.101h1.612c.076 0 .11-.042.11-.101v-.323c0-.068-.034-.11-.11-.11h-.518v-3.489h1.333v.654c0 .068.05.11.11.11h.331c.068 0 .11-.042.11-.11zm3.811 1.07c0-1.57-.551-2.386-1.638-2.386-1.128 0-1.706.832-1.706 2.402 0 1.553.56 2.368 1.638 2.368 1.12 0 1.707-.84 1.707-2.385zm-.713.016c0 1.358-.33 1.834-.967 1.834-.9 0-.968-1.197-.968-1.867 0-1.341.34-1.834.993-1.834.857 0 .942 1.223.942 1.867zm4.635 1.749v-3.523h.398c.094 0 .11-.042.11-.118v-.323c0-.093-.059-.102-.118-.102h-1.443c-.068 0-.102.034-.102.102v.323c0 .05.009.118.094.118h.407v3.523h-.416c-.085 0-.085.084-.085.11v.323c0 .06.009.101.085.101h3.174v1.112c0 .06.009.12.102.12h.433c.076 0 .102-.043.102-.111v-1.536c0-.06-.034-.12-.136-.12h-.365v-3.522h.425c.059 0 .118-.017.118-.118v-.323c0-.076-.042-.102-.11-.102h-1.528c-.068 0-.11.026-.11.102v.323c0 .076.017.118.11.118h.442v3.523h-1.587zm4.022-3.523v3.523h-.441c-.085 0-.102.05-.102.11v.323c0 .076.051.101.094.101h1.544c.068 0 .102-.034.102-.101v-.323c0-.076-.025-.11-.119-.11h-.424v-.102l1.4-1.816c.178-.23.306-.416.433-.705h.025c-.008.518-.016.688-.016.84v1.783h-.442c-.085 0-.102.05-.102.11v.323c0 .085.034.101.102.101h1.519c.102 0 .119-.016.119-.101v-.323c0-.076-.034-.11-.11-.11h-.433v-3.523h.433c.102 0 .11-.05.11-.118v-.323c0-.085-.051-.102-.11-.102h-1.536c-.043 0-.094.026-.094.102v.323c0 .05.009.118.094.118h.45v.103l-1.392 1.858c-.145.187-.263.331-.442.654h-.025c.017-.595.017-.756.017-.909v-1.706h.467c.076 0 .076-.059.076-.118v-.323c0-.11-.051-.102-.127-.102h-1.519c-.085 0-.094.043-.094.102v.323c0 .059 0 .118.085.118h.458zm4.931 0v3.514h-.441c-.059 0-.102.034-.102.119v.314c0 .068.026.11.102.11h1.519c.068 0 .119-.008.119-.11v-.314c0-.085-.043-.119-.102-.119h-.441v-1.57h.45c.118 0 .305.017.441.136.127.11.178.305.212.441l.161.637c.06.22.128.526.306.713.11.118.297.229.586.263l.067.008c.196.026.23.009.246-.068l.102-.364c.017-.077-.017-.102-.059-.11l-.085-.01c-.127-.017-.255-.059-.323-.127-.067-.068-.11-.178-.152-.33l-.255-.883a.864.864 0 00-.204-.39.774.774 0 00-.364-.196.654.654 0 00.347-.246c.102-.136.153-.306.187-.458l.11-.459c.034-.152.077-.297.17-.398.111-.12.289-.137.34-.145l.076-.008c.076-.009.11-.06.093-.12l-.127-.39c-.034-.102-.144-.076-.237-.059l-.043.008c-.144.026-.373.094-.535.255-.195.195-.254.476-.305.721l-.068.34c-.034.178-.093.399-.229.535-.153.144-.348.152-.475.152h-.433v-1.391h.441c.093 0 .102-.06.102-.119v-.314c0-.076-.034-.11-.11-.11h-1.528c-.085 0-.102.05-.102.11v.314c0 .05.009.119.093.119h.45zm6.298 0v3.523h-.459c-.085 0-.085.084-.085.11v.323c0 .067.034.101.102.101h1.536c.068 0 .102-.034.102-.101v-.323c0-.06-.008-.11-.11-.11h-.433v-3.523h.424c.102 0 .119-.059.119-.118v-.323c0-.076-.042-.102-.11-.102h-3.276c-.068 0-.102.034-.102.102v.323c0 .076.017.118.11.118h.433v.442c0 .492-.008.976-.042 1.468-.034.475-.102 1.188-.433 1.468-.161.136-.356.162-.501.179l-.059.008c-.06.009-.102.06-.077.136l.119.373c.026.068.077.077.136.077.187 0 .569-.06.857-.34.476-.466.526-1.307.56-1.85.034-.543.051-1.307.051-1.765v-.196h1.138zm5.932 3.956v-.323c0-.068-.043-.11-.11-.11h-.357l-1.341-3.973c-.025-.076-.034-.093-.127-.093h-.442c-.084 0-.101.017-.127.093l-1.341 3.973h-.356c-.077 0-.102.042-.102.11v.323c0 .06.025.101.102.101h1.477c.068 0 .11-.034.11-.101v-.323c0-.068-.042-.11-.11-.11h-.433l.254-.807h1.469l.246.807h-.408c-.076 0-.102.042-.102.11v.323c0 .067.035.101.102.101h1.486c.067 0 .11-.042.11-.101zm-1.613-1.8h-1.12l.416-1.375c.059-.186.102-.382.144-.551.034.144.076.305.153.56l.407 1.366z" fill="#2B2A29"/><path d="M6.145 1.463h2.048c3.738 0 5.558 1.755 5.558 5.494 0 3.706-1.918 6.144-6.144 6.144v.618c.13.032.423.065.846.065 4.746 0 8.647-2.6 8.647-7.152 0-4.031-2.763-6.21-8.322-6.21H0v.846c2.796.357 2.894.227 2.894 2.633v16.45c0 2.405-.098 2.275-2.894 2.632v.846h9.038v-.846c-2.796-.357-2.893-.227-2.893-2.633V1.463zM30.727 0c-2.796 7.412-6.697 18.335-8.16 21.26-.52 1.106-1.495 1.691-2.405 1.691v.878h6.111v-.878c-1.203 0-1.82-.715-1.82-1.658 0-.13.032-.455.13-.747l1.56-4.487h8.517l1.43 4.324c.163.488.26.845.26 1.202 0 .813-.552 1.366-2.015 1.366v.878h7.802v-.878c-1.43 0-1.983-1.073-2.73-2.958C38.269 17.035 34.855 6.729 32.58 0h-1.853zM26.63 14.792l3.998-10.89h.066l3.543 10.89H26.63zM47.41.422v.846c2.795.358 2.893.227 2.893 2.633v16.45c0 2.405-.098 2.275-2.893 2.632v.846h16.45l1.007-6.015h-.845c-1.528 3.577-1.333 4.974-6.177 4.974-2.99 0-4.29-.26-4.29-2.6V3.901c0-2.406.096-2.275 2.892-2.633V.423H47.41zM80.12 0c-2.796 7.412-6.697 18.335-8.16 21.26-.52 1.106-1.496 1.691-2.406 1.691v.878h6.112v-.878c-1.203 0-1.82-.715-1.82-1.658 0-.13.032-.455.13-.747l1.56-4.487h8.517l1.43 4.324c.163.488.26.845.26 1.202 0 .813-.552 1.366-2.015 1.366v.878h7.802v-.878c-1.43 0-1.983-1.073-2.73-2.958C87.661 17.035 84.247 6.729 81.972 0h-1.854zm-4.097 14.792l4-10.89h.064l3.543 10.89h-7.606zM98.46.422v.846c1.463 0 2.146.78 3.121 2.275l5.137 7.965-6.274 8.907c-1.171 1.69-2.016 2.568-3.64 2.568v.846h6.598v-.846c-.846 0-1.528-.422-1.528-1.267 0-.488.228-1.073.748-1.82l4.973-7.12 5.234 7.412c.487.715.683 1.268.683 1.658 0 .91-.942 1.137-1.821 1.137v.846h8.518v-.846c-1.854 0-2.276-.552-3.966-2.99l-6.599-9.46 5.525-7.575c.716-.975 1.984-1.69 3.089-1.69V.423h-6.339v.845c.78 0 1.561.325 1.561 1.073 0 .325-.131.715-.488 1.202l-4.324 5.852-3.511-5.526c-.39-.585-.552-1.105-.552-1.463 0-.845.812-1.138 1.69-1.138V.423H98.46z" fill="#000"/></svg>