<svg width="32" height="58" fill="none" xmlns="http://www.w3.org/2000/svg"><path d="M31.839 10.414l-7.18-9.66H0v56.5h31.839v-46.84zm-6.774-6.561l4.47 6.014h-4.47V3.853zM1.354 55.432V2.577H23.71v9.113h6.774v43.742H1.354z" fill="#000"/><path d="M21.339 9.867H11.178v1.823h10.16V9.867zm5.081 7.29H6.096v1.823h20.322v-1.823zm0 4.557H6.096v1.822h20.322v-1.822zm0 4.556H6.096v1.823h20.322V26.27zm0 4.557H6.096v1.822h20.322v-1.822zm-3.727 6.379c-2.235 0-4.064 2.46-4.064 5.468 0 1.822.677 3.417 1.694 4.42v5.604l2.37-1.276 2.371 1.276v-4.101H23.71v1.367l-1.016-.547-1.016.547v-2.005c.339.091.678.182 1.016.182 2.236 0 4.065-2.46 4.065-5.467 0-3.008-1.83-5.468-4.065-5.468zm0 9.113c-1.49 0-2.71-1.64-2.71-3.645s1.22-3.646 2.71-3.646 2.71 1.64 2.71 3.646c0 2.004-1.22 3.645-2.71 3.645z" fill="#000"/></svg>