<svg width="233" height="64" fill="none" xmlns="http://www.w3.org/2000/svg"><path d="M207.984 52.44l4.776 10.004h.059l4.782-10.005-4.808-4.814-4.809 4.814z" fill="#CF543C"/><path d="M212.793 4.902c-.987.521-14.32 7.571-14.32 18.836 0 9.635 7.827 24.243 7.827 24.243l6.493-6.523 6.485 6.523s7.828-14.615 7.828-24.243c0-11.258-13.3-18.308-14.313-18.83v-.006zm4.275 32.15l-4.282-4.299-4.269 4.3c-.217-.594-3.092-8.389-3.092-13.467 0-6.859 6.861-10.704 7.381-10.98.513.276 7.373 4.121 7.373 10.98 0 5.078-2.874 12.873-3.091 13.467M227.112 0l-4.893 4.906 4.893 4.906 4.893-4.906L227.112 0z" fill="#B7926A"/><path d="M216.221 23.296a3.365 3.365 0 01-2.068 3.113 3.345 3.345 0 01-3.659-.728 3.368 3.368 0 01.513-5.178 3.346 3.346 0 011.866-.564c.888 0 1.74.354 2.367.983.628.63.981 1.483.981 2.374z" fill="#B7926A"/><path d="M18.129 31.236V14.314h5.065l5.091 5.757 4.69-5.758h4.914v16.923h-5.657v-8.31l-4.092 4.696h-.111l-4.276-4.695v8.31h-5.624zm22.09-8.461a8.666 8.666 0 012.539-6.39c1.73-1.696 4.019-2.54 6.834-2.54 2.816 0 5.098.825 6.782 2.52a8.51 8.51 0 012.591 6.39 8.528 8.528 0 01-2.591 6.39c-1.684 1.695-3.947 2.52-6.782 2.52s-5.104-.805-6.834-2.5a8.647 8.647 0 01-2.54-6.39zm9.373 3.647c1.974 0 3.375-1.392 3.375-3.647 0-2.143-1.467-3.647-3.375-3.647-1.907 0-3.374 1.43-3.374 3.647 0 2.104 1.42 3.647 3.374 3.647zm17.356 4.814h-5.624V14.314h5.624v8.837l6-8.837h5.623v16.922h-5.624V22.42l-5.999 8.817zM68.52 6.043c0 1.471.527 2.183 1.573 2.183.94 0 1.427-.712 1.427-2.183h4.874c0 3.727-2.25 6.391-6.302 6.391-4.38 0-6.446-2.592-6.446-6.39h4.874zm28.524.871a4.508 4.508 0 01-2.17 1.688c-1.025.35-2.08.601-3.151.752-1.134.167-2.24.484-3.29.943-2.534 1.16-3.946 3.883-4.236 8.165h.073c1.092-2.368 3.828-3.957 6.676-3.957 4.802 0 7.835 3.297 7.835 8.422a8.659 8.659 0 01-2.434 6.166 8.254 8.254 0 01-6.23 2.513 8.145 8.145 0 01-6.525-2.816c-1.611-1.88-2.4-4.439-2.4-7.71 0-7.325 2.087-11.873 6.262-13.645a13.36 13.36 0 013.288-.936c2.362-.416 3.67-.66 4.684-1.979l1.618 2.394zM90.032 28.79a5.252 5.252 0 003.947-1.656 5.62 5.62 0 001.605-4.056c0-3.422-1.974-5.757-5.4-5.757a5.798 5.798 0 00-3.822 1.28 5.449 5.449 0 00-1.974 3.046c-.013 4.32 2.309 7.143 5.644 7.143zm14.436 2.446h-2.999V14.314h2.999V26.91l9.749-12.597h2.999v16.923h-2.999V18.64l-9.749 12.596zm18.111-.244a6.655 6.655 0 01-2.927-1.655l1.54-2.302a8.855 8.855 0 004.986 1.84c2.585 0 4.426-1.128 4.426-2.783 0-1.391-1.243-2.176-3.288-2.176h-2.862v-2.42h2.631c1.691 0 2.927-1.05 2.927-2.408 0-1.504-1.387-2.44-3.598-2.44a8.074 8.074 0 00-5.065 1.88l-1.157-2.335c1.348-1.385 3.946-2.256 6.67-2.256 4.052 0 6.341 1.735 6.341 4.551 0 1.979-.98 3.297-2.967 3.957v.08a3.801 3.801 0 012.56 1.263 3.826 3.826 0 01.966 2.693c0 3.12-2.927 5.072-7.163 5.072a14.337 14.337 0 01-4.02-.56zm26.54.244v-7.149h-9.373v7.15h-3V14.313h3v6.957h9.373v-6.958h2.999v16.923h-2.999zm21.075-1.846a9.09 9.09 0 01-6.341 2.215c-2.736 0-4.907-.784-6.578-2.4a8.587 8.587 0 01-2.473-6.43 8.914 8.914 0 012.342-6.292c1.539-1.688 3.677-2.52 6.373-2.52a7.685 7.685 0 015.585 2.184 7.333 7.333 0 012.25 5.566c.004.68-.057 1.357-.185 2.025h-12.971c.263 3.159 2.546 5.078 5.887 5.078 2.21 0 3.947-.6 5.17-1.768l.941 2.342zm-12.189-8.119h10.235c-.151-2.823-1.973-4.51-4.874-4.51-2.999 0-5.025 1.84-5.361 4.51zm29.996 7.519c-1.388 1.806-3.822 2.816-6.453 2.816a9.067 9.067 0 01-6.578-2.401 8.586 8.586 0 01-2.473-6.43 8.808 8.808 0 012.421-6.292 8.147 8.147 0 016.111-2.559c2.96 0 5.176.752 6.637 2.223l-1.388 2.368a6.899 6.899 0 00-4.835-1.768 5.547 5.547 0 00-4.091 1.715 5.81 5.81 0 00-1.684 4.287 5.678 5.678 0 001.723 4.359 6.499 6.499 0 004.714 1.658 6.482 6.482 0 004.495-2.186l1.401 2.21zM3.618 44.333H1.059v3.298H0v-7.406h1.059v3.132h2.559v-3.132h1.059v7.406h-1.06v-3.298zm2.636-3.653a3.672 3.672 0 011.039-.416 5.8 5.8 0 011.315-.145 2.38 2.38 0 011 .185c.237.111.439.284.586.5.145.22.241.467.283.726.045.282.067.566.065.851 0 .594 0 1.167-.04 1.734-.039.568-.039 1.095-.039 1.596 0 .376 0 .72.04 1.043.022.306.07.61.145.91h-.862l-.257-.845H9.47c-.164.27-.39.496-.658.66-.344.2-.74.297-1.138.277a1.661 1.661 0 01-1.315-.554 2.16 2.16 0 01-.44-1.55 2.454 2.454 0 01.21-1.068 1.84 1.84 0 01.598-.66c.28-.185.592-.313.921-.376a6.006 6.006 0 011.197-.112h.599c0-.303.046-.574.046-.81a2.121 2.121 0 00-.25-1.188 1.058 1.058 0 00-.908-.336 3.473 3.473 0 00-.894.125c-.3.066-.59.172-.862.317l-.322-.864zm3.17 3.58H8.84c-.22.002-.44.022-.658.06a1.89 1.89 0 00-.599.204c-.17.097-.312.236-.414.403-.112.2-.164.43-.151.66-.024.33.077.657.282.916a.927.927 0 00.737.323c.342.022.679-.084.947-.297a1.55 1.55 0 00.467-.66l-.026-1.608zm8.146 5.25h-.737l-.177-1.88h-4.5v-7.405h1.06v6.436h2.433v-6.436h1.066v6.436h.855v2.85zm4.7-6.14l.092-1.12h-.059l-.52 1.272-2.492 4.142h-.658v-7.44h1.059v4.393l-.086 1.082h.06l.486-1.214 2.493-4.26h.658v7.406H22.27v-4.26zm2.411.567a5.035 5.035 0 01.658-2.934 2.29 2.29 0 011.973-.944 2.225 2.225 0 011.974.963c.495.888.723 1.9.657 2.915a4.976 4.976 0 01-.657 2.942 2.298 2.298 0 01-1.974.93 2.223 2.223 0 01-1.973-.957 5.327 5.327 0 01-.658-2.915zm1.105 0a7.2 7.2 0 00.086 1.18c.04.318.13.627.263.918.108.236.273.442.48.6.207.148.457.224.71.217a1.227 1.227 0 001.145-.66 4.773 4.773 0 00.388-2.222 7.324 7.324 0 00-.085-1.18c-.04-.32-.13-.63-.263-.924a1.576 1.576 0 00-.48-.6 1.201 1.201 0 00-.704-.21 1.234 1.234 0 00-1.145.659 4.727 4.727 0 00-.395 2.222zm9.13.396h-2.552v3.298h-1.06v-7.406h1.06v3.132h2.552v-3.132h1.066v7.406h-1.066v-3.298zm2.643-3.653a3.68 3.68 0 011.04-.416 5.8 5.8 0 011.315-.145 2.38 2.38 0 011 .185c.236.111.438.284.585.5.145.22.241.467.283.726.046.282.068.566.066.851 0 .594 0 1.167-.04 1.734-.04.568-.04 1.095-.04 1.596 0 .376 0 .72.04 1.043.023.306.071.61.145.91h-.862l-.256-.845h-.053c-.163.27-.39.496-.658.66-.344.2-.74.297-1.138.277a1.661 1.661 0 01-1.315-.554 2.16 2.16 0 01-.507-1.53c-.01-.367.062-.732.21-1.068.144-.266.35-.492.6-.66.278-.187.591-.315.92-.376a6.01 6.01 0 011.23-.165h.599c0-.303.046-.573.046-.81a2.122 2.122 0 00-.25-1.188 1.059 1.059 0 00-.908-.336 3.473 3.473 0 00-.894.125c-.28.07-.55.177-.803.316l-.355-.83zm3.17 3.58h-.605c-.22.002-.44.022-.657.06a1.89 1.89 0 00-.599.204 1.15 1.15 0 00-.414.403c-.112.2-.165.43-.152.66-.023.33.078.657.283.916a.926.926 0 00.737.323 1.38 1.38 0 00.947-.297 1.55 1.55 0 00.467-.66l-.006-1.608zm5.935-3.06h-1.612c-.026.84-.066 1.652-.118 2.434a14.387 14.387 0 01-.257 2.078 4.372 4.372 0 01-.526 1.444 1.027 1.027 0 01-.901.534 2.701 2.701 0 01-.428 0 1.314 1.314 0 01-.322-.099l.164-.923c.178.07.375.07.553 0 .164-.086.303-.343.421-.772.15-.65.246-1.312.29-1.978.072-.884.124-2.097.15-3.627h3.645v7.34h-1.06V41.2zm3.788 1.86a4.53 4.53 0 01.559-.079h.5c.357-.01.714.046 1.052.165.25.107.475.267.658.468.179.204.31.445.381.706.08.281.12.572.119.864a2.585 2.585 0 01-.658 1.979 2.922 2.922 0 01-2.04.606c-.562 0-1.124-.03-1.683-.092v-7.452h1.111v2.835zm0 3.614c.266.056.537.084.809.086.927 0 1.387-.488 1.387-1.464a1.546 1.546 0 00-.322-1.042 1.317 1.317 0 00-1.02-.376h-.414a3.055 3.055 0 00-.427.08l-.014 2.717zm8.038-2.341h-2.578v3.298h-1.033v-7.406h1.033v3.132h2.552v-3.132h1.065v7.406H58.49v-3.298zm3.775-1.273c.186-.038.375-.064.565-.079h.5a2.73 2.73 0 011.02.165c.253.101.479.262.658.468.164.208.28.449.342.706.072.282.108.573.105.864a2.69 2.69 0 01-.599 1.979 2.712 2.712 0 01-1.973.606c-.556 0-1.112-.031-1.664-.092v-7.452h1.059l-.013 2.835zm0 3.614c.268.056.541.085.815.086a1.148 1.148 0 00.987-.376c.207-.323.306-.704.283-1.088a1.732 1.732 0 00-.276-1.042 1.12 1.12 0 00-.967-.376h-.415a3.059 3.059 0 00-.427.08v2.717zm4.071-6.45h1.066v7.407h-1.066v-7.406zm6.407 3.146l.086-1.12h-.06l-.512 1.272-2.493 4.142h-.698v-7.44h1.066v4.393L70.04 45.7h.06l.486-1.214 2.526-4.26h.658v7.406h-1.06l.033-4.26zm-2.23-6.12c.012.355.139.695.362.97a.92.92 0 00.658.29.892.892 0 00.658-.31 1.63 1.63 0 00.362-.936l.809.237a2.1 2.1 0 01-.658 1.352 1.8 1.8 0 01-1.23.468 2.18 2.18 0 01-.658-.099 1.544 1.544 0 01-.579-.31 1.692 1.692 0 01-.434-.554 2.386 2.386 0 01-.237-.824l.947-.283zm11.551 3.95H79.59v6.43h-1.059v-7.405h4.605v7.406h-1.06l-.012-6.43zm2.733-.975h.75l.164.798h.06a1.817 1.817 0 011.71-.976 1.968 1.968 0 011.75.87 5.34 5.34 0 01.578 2.856 6.612 6.612 0 01-.19 1.682 4.016 4.016 0 01-.546 1.272 2.313 2.313 0 01-1.974 1.069c-.22.005-.44-.013-.658-.053a2.048 2.048 0 01-.546-.211v3.047h-1.059l-.04-10.354zm1.059 6.225c.14.119.298.214.467.284.212.072.434.108.658.105a1.391 1.391 0 001.243-.804 4.63 4.63 0 00.454-2.275 7.29 7.29 0 00-.08-1.121 3.088 3.088 0 00-.256-.871 1.496 1.496 0 00-.454-.56 1.096 1.096 0 00-.657-.198c-.717 0-1.178.435-1.388 1.319l.013 4.121zm4.958-2.513a5.035 5.035 0 01.658-2.934 2.29 2.29 0 011.973-.944 2.225 2.225 0 011.974.963c.495.888.723 1.9.657 2.915a4.975 4.975 0 01-.697 2.942 2.298 2.298 0 01-1.973.93 2.223 2.223 0 01-1.974-.957 5.327 5.327 0 01-.618-2.915zm1.105 0a7.2 7.2 0 00.086 1.18c.04.318.129.627.263.918.108.236.273.442.48.6.207.148.456.224.71.217a1.228 1.228 0 001.145-.66 4.773 4.773 0 00.388-2.222 7.324 7.324 0 00-.085-1.18c-.041-.32-.13-.63-.264-.924a1.576 1.576 0 00-.48-.6 1.201 1.201 0 00-.704-.21 1.234 1.234 0 00-1.144.659 4.725 4.725 0 00-.395 2.222zm9.933 3.193c-.26.232-.568.403-.901.5a3.72 3.72 0 01-1.151.179 2.574 2.574 0 01-1.204-.27 2.286 2.286 0 01-.842-.785 3.786 3.786 0 01-.487-1.22 7.437 7.437 0 01-.151-1.596 5.05 5.05 0 01.69-2.89 2.258 2.258 0 011.974-.988 3.16 3.16 0 01.822.105c.276.07.529.213.73.416.24.244.419.542.52.87.151.473.22.968.204 1.464.009.18.009.36 0 .541 0 .191-.033.39-.053.6H98.26a5.7 5.7 0 00.105 1.154c.053.31.163.607.323.877.136.234.331.427.566.561.264.142.561.213.861.204.27 0 .538-.052.79-.151a1.67 1.67 0 00.598-.356l.349.785zm-.829-3.958a2.936 2.936 0 00-.309-1.628 1.07 1.07 0 00-.928-.515 1.312 1.312 0 00-1.078.514 3.085 3.085 0 00-.474 1.63h2.789zm4.039 1.135h-.546v3.297h-1.059v-7.38h1.059v3.344l.507-.21 1.795-3.133h1.138l-1.756 2.974-.513.488.658.594 1.888 3.337h-1.27l-1.901-3.311zm7.866-3.107h-1.815v6.43h-1.066V41.2h-1.809v-.975h4.69v.976zm7.034 0h-2.473v6.43h-1.059v-7.405h4.604v7.406h-1.065l-.007-6.43zm2.387 2.737a5.042 5.042 0 01.658-2.934 2.285 2.285 0 011.973-.944 2.223 2.223 0 011.974.963c.495.888.723 1.9.658 2.915a4.976 4.976 0 01-.658 2.942 2.3 2.3 0 01-1.974.93 2.225 2.225 0 01-1.973-.957 5.328 5.328 0 01-.658-2.915zm1.105 0c-.004.396.025.79.086 1.18.04.318.129.627.263.918.108.236.273.442.48.6.207.148.456.224.711.217a1.23 1.23 0 001.144-.66 4.775 4.775 0 00.388-2.222 7.29 7.29 0 00-.085-1.18c-.041-.32-.13-.63-.263-.924a1.586 1.586 0 00-.481-.6 1.2 1.2 0 00-.703-.21 1.236 1.236 0 00-1.145.659 4.731 4.731 0 00-.375 2.222h-.02zm12.128-2.737h-2.473v6.43h-1.066v-7.405h4.604v7.406h-1.065V41.2zm2.408 2.738a5.034 5.034 0 01.658-2.935 2.284 2.284 0 011.973-.943 2.233 2.233 0 011.973.963c.495.887.724 1.9.658 2.914a4.921 4.921 0 01-.697 2.942 2.287 2.287 0 01-1.973.93 2.223 2.223 0 01-1.974-.956 5.331 5.331 0 01-.618-2.916zm1.105 0a8.04 8.04 0 00.079 1.18c.046.317.136.626.27.917.108.237.273.443.48.6.205.147.452.223.704.218a1.227 1.227 0 001.151-.66 4.775 4.775 0 00.388-2.222 7.29 7.29 0 00-.086-1.181c-.04-.32-.129-.63-.263-.923a1.574 1.574 0 00-.48-.6 1.207 1.207 0 00-.71-.212 1.23 1.23 0 00-1.138.66 4.726 4.726 0 00-.395 2.222zm10.878 5.572h-.736l-.178-1.88h-4.348l-.191 1.88h-.723v-2.835h.697c.093-.196.174-.396.243-.6.128-.398.229-.803.303-1.214a21.29 21.29 0 00.257-1.92c.072-.764.118-1.655.125-2.703h3.703v6.437h.848v2.835zm-1.927-2.835V41.2h-1.671c0 .422-.046.883-.079 1.391a18.363 18.363 0 01-.157 1.497c-.073.495-.112.976-.244 1.412a7.58 7.58 0 01-.335 1.154l2.486.02zm8.342 2.835h-.744l-.171-1.88h-4.367l-.191 1.88h-.724v-2.835h.658c.093-.196.174-.396.244-.6.13-.397.231-.803.302-1.214a21.29 21.29 0 00.257-1.92c.072-.764.118-1.655.125-2.703h3.703v6.437h.875l.033 2.835zm-1.934-2.835V41.2h-1.671c0 .422-.046.883-.079 1.391a18.363 18.363 0 01-.158 1.497c-.072.495-.151.976-.25 1.431-.08.393-.193.78-.335 1.154h2.493zm7.359.455a2.316 2.316 0 01-.894.5c-.372.12-.761.18-1.152.179-.417.01-.83-.083-1.203-.27a2.282 2.282 0 01-.842-.785 3.64 3.64 0 01-.487-1.22 7.44 7.44 0 01-.158-1.596 4.994 4.994 0 01.697-2.89 2.263 2.263 0 011.974-.988c.277-.001.554.034.822.105.276.07.529.213.73.416.238.246.416.544.52.87.145.474.212.969.197 1.464v.541c0 .191-.033.39-.053.6h-3.742c-.003.387.03.774.098 1.154.058.31.169.606.329.877.136.234.331.427.566.561.264.142.562.213.862.204a2.18 2.18 0 00.789-.151 1.67 1.67 0 00.599-.356l.348.785zm-.822-3.958a2.932 2.932 0 00-.296-1.628 1.078 1.078 0 00-.934-.515 1.309 1.309 0 00-1.072.514 2.968 2.968 0 00-.474 1.63h2.776zm2.447-2.947h.749l.165.798h.092a1.812 1.812 0 011.71-.976 1.97 1.97 0 011.75.87c.454.88.654 1.868.579 2.856a6.63 6.63 0 01-.224 1.728 4.022 4.022 0 01-.546 1.273 2.305 2.305 0 01-1.973 1.068 3.161 3.161 0 01-.658-.053 2.05 2.05 0 01-.546-.21v3.046h-1.059l-.039-10.4zm1.059 6.225c.14.119.297.214.467.284.211.072.434.108.657.105a1.4 1.4 0 001.244-.804 4.62 4.62 0 00.453-2.275 7.131 7.131 0 00-.079-1.121 3.572 3.572 0 00-.256-.871 1.489 1.489 0 00-.454-.56 1.122 1.122 0 00-.658-.198c-.717 0-1.177.435-1.388 1.319l.014 4.121zm7.184-2.084l-1.651 3.298h-1.19l1.809-3.383.401-.442-.605-.567-1.474-3.047h1.119l1.532 3.192h.605v-3.192h1.066v3.343l.546-.21 1.533-3.133h1.105l-1.546 3-.474.475.605.594 1.698 3.297h-1.224l-1.651-3.297h-.592v3.297h-1.066v-3.41l-.546.185zm7.479-.059h-.546v3.297h-1.059v-7.38h1.059v3.344l.506-.21 1.77-3.133h1.138l-1.757 2.974-.513.488.658.594 1.888 3.337h-1.27l-1.874-3.311zm8.309 2.823a2.309 2.309 0 01-.894.5 3.72 3.72 0 01-1.151.179 2.534 2.534 0 01-1.204-.27 2.282 2.282 0 01-.842-.785 3.64 3.64 0 01-.487-1.22 7.44 7.44 0 01-.158-1.596 4.987 4.987 0 01.698-2.89 2.26 2.26 0 011.973-.988c.277-.001.554.034.822.105.277.07.529.213.73.416.238.246.416.544.52.87.146.474.212.969.197 1.464v.541c0 .191 0 .39-.052.6h-3.743c-.003.387.03.774.099 1.154.057.31.169.606.328.877.137.234.332.427.566.561.265.142.562.213.862.204.27 0 .538-.052.789-.151.223-.075.427-.197.599-.356l.348.785zm-.822-3.958a2.932 2.932 0 00-.296-1.628 1.07 1.07 0 00-.934-.515 1.312 1.312 0 00-1.072.514 2.976 2.976 0 00-.474 1.63h2.776zM54.818 56.653l.106-1.405h-.06l-.447 1.253-1.368 2.85h-.382l-1.434-2.843-.4-1.253h-.073l.118 1.391v4.406h-.96v-7.407h1.066l1.637 3.212.33.963.355-.99 1.486-3.184h1.118v7.4h-1.092v-4.393zm2.658-2.579c.331-.189.69-.323 1.065-.395.431-.102.873-.15 1.316-.146.34-.015.68.048.993.185.239.111.443.284.592.501.146.219.243.466.283.726.042.282.064.566.066.85 0 .588 0 1.168-.04 1.728-.04.561-.04 1.095-.04 1.596 0 .376 0 .726.04 1.042.004.305.03.61.08.91h-.823l-.257-.87h-.059c-.162.27-.388.497-.658.66a2.068 2.068 0 01-1.144.283 1.68 1.68 0 01-1.316-.56 2.187 2.187 0 01-.5-1.53c.003-.355.086-.705.244-1.023a1.76 1.76 0 01.598-.699c.279-.186.592-.314.921-.376a5.993 5.993 0 011.19-.112h.606c0-.31.04-.58.04-.818a2.09 2.09 0 00-.244-1.18 1.08 1.08 0 00-.908-.343 3.787 3.787 0 00-.894.125 3.04 3.04 0 00-.803.324l-.348-.878zm3.17 3.575h-.586c-.22.001-.44.021-.657.06-.21.033-.412.102-.599.204a1.107 1.107 0 00-.414.402c-.112.2-.164.43-.151.66-.024.33.077.657.283.916a.934.934 0 00.736.33c.342.021.679-.084.947-.297a1.67 1.67 0 00.468-.66l-.027-1.615zm5.929-3.041H64.97c-.035.84-.074 1.651-.118 2.434a16.561 16.561 0 01-.257 2.077c-.092.508-.27.997-.526 1.445a1.02 1.02 0 01-.901.54 2.608 2.608 0 01-.428 0 1.225 1.225 0 01-.322-.099l.164-.916c.192.05.395.02.566-.08.228-.197.378-.471.421-.77.147-.652.242-1.313.283-1.98.072-.883.125-2.09.158-3.627h3.644v7.413h-1.066l-.013-6.437zm2.407 2.763a5.036 5.036 0 01.658-2.934 2.284 2.284 0 011.973-.937 2.226 2.226 0 011.974.956c.492.889.72 1.9.657 2.915a4.924 4.924 0 01-.697 2.942 2.271 2.271 0 01-1.973.936 2.224 2.224 0 01-1.974-.963 5.287 5.287 0 01-.618-2.915zm1.105 0a8.14 8.14 0 00.08 1.188c.046.316.136.625.269.916.108.235.273.439.48.594.205.147.452.223.704.217a1.235 1.235 0 001.15-.66 4.807 4.807 0 00.389-2.228 7.242 7.242 0 00-.086-1.174 3.124 3.124 0 00-.263-.923 1.575 1.575 0 00-.48-.6 1.169 1.169 0 00-.71-.218 1.235 1.235 0 00-1.138.699 4.68 4.68 0 00-.395 2.19zm9.031-2.763h-2.453v6.437h-1.06v-7.4h3.513v.963zm.275 2.764a4.983 4.983 0 01.658-2.935 2.265 2.265 0 011.974-.937 2.232 2.232 0 011.973.957c.492.888.72 1.9.658 2.915a4.977 4.977 0 01-.658 2.941 2.278 2.278 0 01-1.973.936 2.23 2.23 0 01-1.974-.962 5.288 5.288 0 01-.658-2.915zm1.112 0a8.17 8.17 0 00.079 1.187c.044.316.133.625.263.916.109.235.274.44.48.594.207.148.457.224.71.218a1.24 1.24 0 001.152-.66 4.819 4.819 0 00.381-2.229 8.116 8.116 0 00-.079-1.174 3.302 3.302 0 00-.27-.923 1.515 1.515 0 00-.48-.6 1.136 1.136 0 00-.703-.218 1.254 1.254 0 00-1.132.646 4.694 4.694 0 00-.4 2.243zm12.241-.587l.086-1.128h-.086l-.513 1.246-2.493 4.142h-.697v-7.4h1.072v4.386l-.085 1.075h.085l.48-1.213 2.526-4.26h.69v7.412h-1.065v-4.26zm9.868 3.885c-.253.188-.538.33-.842.415a3.742 3.742 0 01-.987.132 2.402 2.402 0 01-1.197-.277 2.095 2.095 0 01-.79-.785 3.839 3.839 0 01-.44-1.227 8.408 8.408 0 01-.151-1.556 5.141 5.141 0 01.658-2.882 2.186 2.186 0 011.927-.99 4.3 4.3 0 01.987.1c.245.059.482.15.703.27l-.296.93a2.52 2.52 0 00-1.315-.343 1.312 1.312 0 00-1.197.706 4.51 4.51 0 00-.349 2.21c-.003.381.026.763.086 1.14.048.322.148.633.296.923.124.247.307.46.532.62.24.16.522.24.81.231.457.003.901-.153 1.256-.442l.309.825zm1.093-7.025h.756l.158.805h.06a1.825 1.825 0 011.71-.976 1.97 1.97 0 011.749.87 5.29 5.29 0 01.586 2.856 6.896 6.896 0 01-.191 1.675 4.255 4.255 0 01-.546 1.273c-.218.335-.517.61-.868.798a2.292 2.292 0 01-1.125.277 3.558 3.558 0 01-.658-.053 1.815 1.815 0 01-.546-.217v3.046h-1.065l-.02-10.354zm1.066 6.233c.136.118.292.212.46.277.221.079.456.115.691.105a1.368 1.368 0 001.236-.798c.344-.71.502-1.494.461-2.282 0-.375-.028-.75-.086-1.12a2.964 2.964 0 00-.256-.865 1.496 1.496 0 00-.448-.56 1.087 1.087 0 00-.657-.205c-.717 0-1.178.442-1.382 1.32l-.019 4.128zm9.681.666a2.47 2.47 0 01-.901.501c-.372.12-.761.18-1.152.178a2.455 2.455 0 01-1.197-.277 2.192 2.192 0 01-.842-.785 3.453 3.453 0 01-.486-1.22 7.313 7.313 0 01-.158-1.596 4.965 4.965 0 01.697-2.882 2.252 2.252 0 011.973-.99c.275 0 .549.034.816.1.274.075.525.218.73.415a2.2 2.2 0 01.526.87c.146.475.213.97.198 1.465v.54c0 .192-.033.396-.053.6h-3.749c-.002.388.034.774.105 1.155.057.308.166.605.322.877.142.233.339.428.572.567.266.14.563.208.862.198.271 0 .539-.05.79-.151.223-.07.427-.19.598-.35l.349.785zm-.823-3.957c.06-.563-.05-1.13-.315-1.63a1.06 1.06 0 00-.928-.52 1.313 1.313 0 00-1.078.52 2.991 2.991 0 00-.468 1.63h2.789zm7.573 6.338h-.737l-.177-1.88h-4.368l-.191 1.88h-.723v-2.843h.658a4.05 4.05 0 00.243-.6c.135-.395.236-.801.303-1.213a23.68 23.68 0 00.263-1.913c.079-.758.111-1.662.125-2.71h3.703v6.436h.868l.033 2.843zm-1.934-2.843v-5.474h-1.664c0 .429-.046.89-.085 1.392-.04.501-.086 1.002-.152 1.504-.066.5-.151.969-.25 1.424-.079.394-.194.78-.342 1.154h2.493zm6.582-2.334h-2.559v3.297h-1.059v-7.4h1.059v3.14h2.559v-3.14h1.059v7.4h-1.059v-3.297zm7.125 2.796a2.514 2.514 0 01-.901.501c-.372.12-.76.18-1.151.178a2.495 2.495 0 01-1.204-.277 2.285 2.285 0 01-.842-.785 3.711 3.711 0 01-.486-1.22 7.72 7.72 0 01-.125-1.57 5.015 5.015 0 01.658-2.881 2.255 2.255 0 011.973-.99c.275 0 .549.034.816.1.274.074.525.217.73.415.238.246.418.544.526.87.145.474.212.969.197 1.464.01.18.01.361 0 .541 0 .191 0 .396-.046.6h-3.749c-.005.388.031.774.105 1.154.055.31.164.607.322.878.138.233.333.429.566.567.267.14.567.209.868.198.269.001.535-.05.783-.152.223-.07.428-.19.599-.35l.361.759zm-.828-3.957a2.917 2.917 0 00-.309-1.63 1.067 1.067 0 00-.928-.52 1.314 1.314 0 00-1.079.52 3.04 3.04 0 00-.473 1.63h2.789zm5.946-1.979h-2.447v6.437h-1.066v-7.4h3.513v.963zm.283 2.763a4.993 4.993 0 01.657-2.934 2.284 2.284 0 011.974-.937 2.227 2.227 0 011.973.956c.493.889.721 1.9.658 2.915a4.982 4.982 0 01-.697 2.942 2.283 2.283 0 01-1.974.936 2.24 2.24 0 01-1.973-.963 5.286 5.286 0 01-.618-2.915zm1.105 0c-.003.398.023.794.079 1.188.043.317.134.626.269.916.106.234.269.439.474.594.207.148.456.224.71.217a1.242 1.242 0 001.151-.66 4.814 4.814 0 00.382-2.228 8.09 8.09 0 00-.079-1.174 3.3 3.3 0 00-.263-.923 1.574 1.574 0 00-.48-.6 1.17 1.17 0 00-.711-.218 1.255 1.255 0 00-1.144.699 4.77 4.77 0 00-.388 2.19zm9.178-2.466a2.032 2.032 0 012.039-1.227 1.924 1.924 0 011.684.858c.455.8.663 1.718.598 2.638a5.368 5.368 0 01-.691 3.047 2.215 2.215 0 01-1.933.996c-.402.01-.8-.08-1.158-.264a2.065 2.065 0 01-.822-.812 4.342 4.342 0 01-.507-1.444 11.663 11.663 0 01-.171-2.143 18.5 18.5 0 01.112-2.17 8.788 8.788 0 01.309-1.523c.108-.355.27-.691.48-.996a2.3 2.3 0 01.658-.58 2.44 2.44 0 01.77-.304c.283-.06.579-.112.894-.152.334-.03.664-.09.987-.178a1.16 1.16 0 00.592-.35l.072 1.016a.996.996 0 01-.263.211c-.111.066-.23.117-.355.152a3.601 3.601 0 01-.48.099c-.178 0-.395.053-.658.073a3.277 3.277 0 00-.881.19 1.527 1.527 0 00-.658.482c-.206.271-.356.58-.441.91-.12.48-.193.97-.217 1.465l.04.006zm.151 2.453c-.003.38.025.76.085 1.135.049.318.144.627.283.916.108.243.273.456.48.62.188.149.419.23.658.231a1.234 1.234 0 001.151-.725 5.01 5.01 0 00.382-2.25 4.777 4.777 0 00-.323-1.931 1.1 1.1 0 00-1.065-.713 1.37 1.37 0 00-1.276.706 4.13 4.13 0 00-.349 2.025l-.026-.014zm9.213-.573l.085-1.128h-.059l-.513 1.246-2.493 4.142h-.697v-7.4h1.065v4.386l-.092 1.075h.059l.487-1.213 2.526-4.26h.658v7.412h-1.059l.033-4.26zm3.288.917v-.89h.809a.901.901 0 00.408-.093c.277-.136.493-.372.605-.66.066-.14.1-.293.099-.448a1.083 1.083 0 00-.303-.844 1.377 1.377 0 00-.927-.264 2.377 2.377 0 00-.829.132 2.308 2.308 0 00-.585.283l-.31-.844c.268-.17.558-.3.862-.389a3.933 3.933 0 011.131-.145 2.247 2.247 0 011.494.449 1.705 1.705 0 01.526 1.319c.003.364-.095.723-.283 1.035a1.57 1.57 0 01-.763.66v.059a1.51 1.51 0 01.974.66c.213.367.316.788.296 1.213a2.139 2.139 0 01-.658 1.563 2.548 2.548 0 01-1.901.66 3.847 3.847 0 01-.993-.113 3.278 3.278 0 01-.731-.29l.277-.917c.202.127.424.216.657.264.261.061.528.092.796.092.393.033.783-.09 1.086-.343a1.312 1.312 0 00.361-.989 1.097 1.097 0 00-.282-.83 1.656 1.656 0 00-1.138-.317l-.678-.014zm8.158.046h-2.553v3.297h-1.059v-7.4h1.059v3.14h2.553v-3.14h1.065v7.4h-1.065v-3.297zm7.131 2.796a2.53 2.53 0 01-.901.5 3.72 3.72 0 01-1.151.179 2.495 2.495 0 01-1.204-.277 2.23 2.23 0 01-.842-.785 3.589 3.589 0 01-.487-1.22 7.374 7.374 0 01-.151-1.596 5.027 5.027 0 01.69-2.882 2.263 2.263 0 011.974-.99c.277 0 .553.034.822.1.274.075.525.218.73.415.239.245.417.544.52.87.151.473.22.969.204 1.465.009.18.009.36 0 .54 0 .192-.033.396-.053.6h-3.756a5.73 5.73 0 00.105 1.155c.052.31.161.607.323.877.138.234.332.429.565.567.266.14.563.208.862.198.271.002.539-.05.789-.152.224-.07.428-.19.599-.35l.362.785zm-.829-3.957a2.909 2.909 0 00-.309-1.63 1.078 1.078 0 00-.934-.52 1.31 1.31 0 00-1.072.52 2.993 2.993 0 00-.461 1.623l2.776.007zm6.386 4.082c-.253.189-.538.33-.841.416a3.752 3.752 0 01-.987.131 2.4 2.4 0 01-1.197-.277 2.097 2.097 0 01-.79-.784 3.855 3.855 0 01-.44-1.227 8.388 8.388 0 01-.139-1.59 5.15 5.15 0 01.658-2.881 2.182 2.182 0 011.921-.99c.334-.005.667.028.993.1.246.058.482.15.704.27l-.296.93a2.52 2.52 0 00-1.283-.343 1.315 1.315 0 00-1.197.705 4.53 4.53 0 00-.408 2.21 7.03 7.03 0 00.086 1.14c.049.322.149.634.296.924.125.247.307.46.533.62.239.16.522.24.809.23a1.97 1.97 0 001.256-.441l.322.857zm1.033-6.595a3.499 3.499 0 011.039-.415c.431-.102.873-.15 1.316-.145.342-.015.684.048.999.184.238.11.441.283.586.502.146.218.242.465.283.725.045.281.067.566.065.85 0 .588 0 1.168-.039 1.729-.04.56-.033 1.095-.033 1.596 0 .376 0 .725.033 1.042.023.307.071.611.145.91h-.836l-.256-.87h-.059c-.163.27-.389.496-.658.659-.344.203-.74.301-1.138.283a1.671 1.671 0 01-1.316-.56 2.158 2.158 0 01-.506-1.53 2.424 2.424 0 01.21-1.062c.137-.28.343-.521.599-.7a2.51 2.51 0 01.921-.375 6.045 6.045 0 011.197-.112h.598c0-.31.046-.58.046-.818a2.08 2.08 0 00-.249-1.18 1.069 1.069 0 00-.908-.343 3.831 3.831 0 00-.895.125c-.281.07-.551.179-.802.323l-.342-.818zm3.17 3.575h-.585a3.928 3.928 0 00-.658.06 1.89 1.89 0 00-.599.204c-.17.096-.312.235-.414.402-.112.2-.164.43-.151.66-.024.33.077.657.283.916a.926.926 0 00.736.33c.342.021.679-.084.947-.297a1.6 1.6 0 00.467-.66l-.026-1.615z" fill="#4C2618"/></svg>